<?xml version="1.0" encoding="UTF-8" standalone="no"?>
<svg width="62px" height="49px" viewBox="0 0 62 49" version="1.1" xmlns="http://www.w3.org/2000/svg" xmlns:xlink="http://www.w3.org/1999/xlink" xmlns:sketch="http://www.bohemiancoding.com/sketch/ns">
    <!-- Generator: Sketch 3.3.3 (12072) - http://www.bohemiancoding.com/sketch -->
    <title>step-2</title>
    <desc>Created with Sketch.</desc>
    <defs></defs>
    <g id="Page-1" stroke="none" stroke-width="1" fill="none" fill-rule="evenodd" sketch:type="MSPage">
        <g id="step-2" sketch:type="MSLayerGroup" transform="translate(-1.000000, 0.000000)">
            <path d="M61,0 L3,0 C2.468,0 0.967,0.541 1,2 L1,40 C0.978,41.692 2.468,42 3,42 L26,42 L26,47 L21.503,47.047 C20.971,47.047 20.539,47.484 20.539,48.024 C20.539,48.563 20.971,49 21.503,49 L25.177,49 L38.823,49 L38.826,49 L42.497,49 C43.029,49 43.461,48.563 43.461,48.024 C43.461,47.484 43.029,47.047 42.497,47.047 L38,47 L38,42 L61,42 C62.801,42 63,40.788 63,40 L63,2 C63,1.461 62.722,0.087 61,0 L61,0 Z M36,47 L28,47 L28,42 L36,42 L36,47 L36,47 Z M61.072,40.069 L36.895,40.069 L27.105,40.069 L2.928,40.069 L2.928,1.953 L61.072,1.953 L61.072,40.069 L61.072,40.069 Z" id="Shape" opacity="0.8" fill="#000000" sketch:type="MSShapeGroup"></path>
            <path d="M48.5,26 L47.5,26 L40.5,26 L39.5,26 C39.224,26 39,25.776 39,25.5 L39,24.5 L39,16.5 C39,16.224 39.224,16 39.5,16 L40.5,16 L47.5,16 L48.5,16 C48.776,16 49,16.224 49,16.5 L49,17.5 L49,25.5 C49,25.776 48.776,26 48.5,26 L48.5,26 Z M41,18 L41,24 L47,24 L47,18 L41,18 L41,18 Z M36.5,26 L35.5,26 L28.5,26 L27.5,26 C27.224,26 27,25.776 27,25.5 L27,24.5 L27,16.5 C27,16.224 27.224,16 27.5,16 L28.5,16 L35.5,16 L36.5,16 C36.776,16 37,16.224 37,16.5 L37,17.5 L37,25.5 C37,25.776 36.776,26 36.5,26 L36.5,26 Z M35,18 L29,18 L29,24 L35,24 L35,18 L35,18 Z M24.5,26 L23.5,26 L16.5,26 L15.5,26 C15.224,26 15,25.776 15,25.5 L15,24.5 L15,16.5 C15,16.224 15.224,16 15.5,16 L16.5,16 L23.5,16 L24.5,16 C24.776,16 25,16.224 25,16.5 L25,17.5 L25,25.5 C25,25.776 24.776,26 24.5,26 L24.5,26 Z M23,18 L17,18 L17,24 L23,24 L23,18 L23,18 Z" id="Shape" fill="#FFBA00" sketch:type="MSShapeGroup"></path>
            <path d="M54.811,11.576 L43.658,22.809 C43.469,23 43.163,23 42.974,22.809 L37.189,16.961 C37,16.77 37,16.46 37.189,16.269 L37.872,15.576 C38.061,15.385 38.367,15.385 38.556,15.576 L43.318,20.389 L53.444,10.191 C53.633,10 53.939,10 54.128,10.191 L54.811,10.884 C55,11.075 55,11.385 54.811,11.576 L54.811,11.576 Z" id="Shape" fill="#000000" sketch:type="MSShapeGroup"></path>
        </g>
    </g>
</svg>