<?xml version="1.0" encoding="UTF-8" standalone="no"?>
<svg width="84px" height="70px" viewBox="0 0 84 70" version="1.1" xmlns="http://www.w3.org/2000/svg" xmlns:xlink="http://www.w3.org/1999/xlink" xmlns:sketch="http://www.bohemiancoding.com/sketch/ns">
    <!-- Generator: Sketch 3.3.3 (12072) - http://www.bohemiancoding.com/sketch -->
    <title>step-1</title>
    <desc>Created with Sketch.</desc>
    <defs></defs>
    <g id="Page-1" stroke="none" stroke-width="1" fill="none" fill-rule="evenodd" sketch:type="MSPage">
        <g id="step-1" sketch:type="MSLayerGroup">
            <path d="M49.89,69.562 L2.11,69.562 C0.946,69.562 0,68.624 0,67.471 L0,32.626 C0,31.473 0.946,30.534 2.11,30.534 L17.387,30.534 C17.722,30.534 18.289,30.279 18.511,30.029 L19.653,28.734 C20.243,28.066 21.364,27.562 22.261,27.562 L29.634,27.562 C30.53,27.562 31.65,28.066 32.241,28.734 L33.384,30.029 C33.605,30.28 34.172,30.534 34.507,30.534 L49.89,30.534 C51.053,30.534 52,31.472 52,32.626 L52,67.471 C52,68.624 51.053,69.562 49.89,69.562 L49.89,69.562 Z M50.029,32.626 C50.029,32.552 49.964,32.488 49.89,32.488 L34.508,32.488 C33.611,32.488 32.491,31.984 31.901,31.315 L30.758,30.021 C30.536,29.77 29.97,29.515 29.634,29.515 L22.261,29.515 C21.925,29.515 21.358,29.77 21.137,30.021 L19.994,31.315 C19.403,31.984 18.283,32.488 17.387,32.488 L2.11,32.488 C2.036,32.488 1.971,32.552 1.971,32.626 L1.971,49.651 L16.18,49.651 C16.569,44.614 20.82,40.632 26,40.632 C31.201,40.632 35.463,44.646 35.823,49.711 C35.919,49.68 36.016,49.651 36.121,49.651 L50.029,49.651 L50.029,32.626 L50.029,32.626 Z M18.145,51.032 C18.471,55.047 21.866,58.218 26,58.218 C30.349,58.218 33.887,54.711 33.887,50.401 C33.887,46.091 30.349,42.585 26,42.585 C21.722,42.585 18.237,45.979 18.124,50.192 C18.192,50.324 18.239,50.469 18.239,50.627 C18.239,50.773 18.203,50.908 18.145,51.032 L18.145,51.032 Z M50.029,51.604 L36.121,51.604 C36.002,51.604 35.891,51.576 35.786,51.537 C35.215,56.39 31.047,60.171 26,60.171 C20.976,60.171 16.826,56.425 16.225,51.604 L1.971,51.604 L1.971,67.471 C1.971,67.544 2.036,67.609 2.11,67.609 L49.89,67.609 C49.964,67.609 50.029,67.545 50.029,67.471 L50.029,51.604 L50.029,51.604 Z M26,44.517 C29.274,44.517 31.937,47.157 31.937,50.402 C31.937,53.647 29.274,56.285 26,56.285 C22.726,56.285 20.063,53.646 20.063,50.402 C20.063,47.158 22.726,44.517 26,44.517 L26,44.517 Z M26,54.332 C28.187,54.332 29.966,52.569 29.966,50.402 C29.966,48.234 28.187,46.471 26,46.471 C23.813,46.471 22.034,48.234 22.034,50.402 C22.034,52.569 23.813,54.332 26,54.332 L26,54.332 Z M43.5,34.562 L47.5,34.562 C47.776,34.562 48,34.786 48,35.062 L48,36.062 C48,36.338 47.776,36.562 47.5,36.562 L43.5,36.562 C43.224,36.562 43,36.338 43,36.062 L43,35.062 C43,34.786 43.224,34.562 43.5,34.562 L43.5,34.562 Z" id="Shape" opacity="0.8" fill="#1D1D1D" sketch:type="MSShapeGroup"></path>
            <path d="M82.852,25.919 L61.991,52.857 C60.605,54.562 58.785,53.276 58.785,53.276 L51.865,48.029 L51.865,45.831 L53.733,46.722 C53.733,46.722 57.334,49.386 59.268,50.793 C60.884,51.967 60.871,50.583 60.871,50.583 L81.184,24.545 L75,19.562 L76,17.562 L82.428,22.748 C82.9,23.106 84,24.348 82.852,25.919 L82.852,25.919 Z M61.923,45.647 C60.916,47.594 58.87,46.7 58.87,46.7 L51.865,43.353 L51.865,40.958 C54.052,41.982 56.379,43.058 58.835,44.171 C60.657,44.997 60.361,43.644 60.361,43.644 L74.922,14.075 L50,2.167 C50,2.167 37.888,26.904 36.137,30.562 L33.738,30.562 L48.011,1.314 C48.987,-0.438 50.528,0.003 51.064,0.26 L75.772,12.065 C76.308,12.322 77.639,13.317 76.837,15.086 L61.923,45.647 L61.923,45.647 Z M51.7,27.965 C51.649,28.07 51.523,28.115 51.42,28.066 L50.796,27.768 C50.694,27.719 50.651,27.593 50.702,27.488 L51.603,25.642 L49.643,24.705 C49.527,24.65 49.492,24.5 49.57,24.395 L50.006,23.802 C50.063,23.726 50.162,23.698 50.249,23.73 C50.865,23.953 51.59,23.779 51.849,23.247 L53.838,19.172 C54.126,18.581 53.673,17.927 53.002,17.525 C52.91,17.471 52.88,17.351 52.928,17.253 L53.242,16.61 C53.293,16.505 53.418,16.459 53.522,16.508 L55.581,17.492 L56.482,15.646 C56.533,15.541 56.659,15.495 56.762,15.544 L57.386,15.842 C57.489,15.891 57.531,16.018 57.48,16.123 L56.579,17.969 L57.577,18.446 L58.478,16.6 C58.529,16.495 58.655,16.449 58.759,16.498 L59.383,16.797 C59.486,16.846 59.528,16.972 59.477,17.077 L58.576,18.923 C58.708,18.986 58.824,19.042 58.919,19.087 C60.108,19.655 60.55,21.185 59.906,22.503 C59.639,23.051 59.226,23.476 58.749,23.745 C59.114,24.441 59.139,25.336 58.742,26.148 C58.107,27.449 56.629,28.043 55.44,27.475 C55.245,27.382 54.951,27.241 54.598,27.072 L53.697,28.918 C53.646,29.023 53.519,29.069 53.416,29.02 L52.792,28.722 C52.69,28.673 52.647,28.547 52.699,28.442 L53.6,26.595 L52.601,26.118 L51.7,27.965 L51.7,27.965 Z M57.879,21.77 C58.162,21.189 57.931,20.499 57.362,20.227 C56.793,19.955 55.833,19.497 55.833,19.497 L54.808,21.598 C54.808,21.598 55.768,22.057 56.336,22.328 C56.905,22.6 57.596,22.35 57.879,21.77 L57.879,21.77 Z M55.344,25.623 C55.913,25.895 56.603,25.644 56.886,25.064 C57.17,24.484 56.938,23.794 56.37,23.522 C55.801,23.25 54.342,22.553 54.342,22.553 L53.316,24.654 C53.316,24.654 54.776,25.351 55.344,25.623 L55.344,25.623 Z" id="Shape" fill="#FFBA00" sketch:type="MSShapeGroup"></path>
        </g>
    </g>
</svg>