<svg xmlns="http://www.w3.org/2000/svg" xmlns:xlink="http://www.w3.org/1999/xlink" preserveAspectRatio="xMidYMid" width="17" height="15" viewBox="0 0 17 15">
  <defs>
    <style>
      .cls-1 {
        fill: #fff;
        fill-rule: evenodd;
      }
    </style>
  </defs>
  <path d="M14.721,15.000 L2.279,15.000 C1.027,15.000 -0.000,13.937 -0.000,12.666 L-0.000,5.180 C-0.000,3.909 1.027,2.865 2.279,2.865 L3.932,2.856 L5.698,0.256 C5.801,0.105 5.969,0.000 6.155,0.000 L10.760,0.000 C10.947,0.000 11.125,0.105 11.227,0.266 L12.937,2.856 L14.721,2.865 C15.972,2.865 17.000,3.909 17.000,5.180 L17.000,12.666 C17.000,13.937 15.972,15.000 14.721,15.000 ZM1.121,12.666 C1.121,13.311 1.644,13.861 2.279,13.861 L14.721,13.861 C15.356,13.861 15.879,13.311 15.879,12.666 L15.870,12.666 L15.870,9.000 L12.443,9.000 C12.099,10.870 10.484,12.296 8.547,12.296 C6.609,12.296 4.994,10.870 4.650,9.000 L1.121,9.000 L1.121,12.666 ZM11.396,8.264 C11.396,6.669 10.116,5.370 8.547,5.370 C6.977,5.370 5.698,6.669 5.698,8.264 C5.698,9.858 6.977,11.157 8.547,11.157 C10.116,11.157 11.396,9.858 11.396,8.264 ZM14.712,4.004 L12.619,3.985 C12.442,3.985 12.264,3.880 12.162,3.729 L10.461,1.148 L6.454,1.148 L4.689,3.748 C4.586,3.899 4.418,4.004 4.231,4.004 L2.279,4.004 C1.644,4.004 1.121,4.535 1.121,5.180 L1.121,8.000 L4.603,8.000 C4.739,5.905 6.441,4.231 8.547,4.231 C10.644,4.231 12.353,5.904 12.490,8.000 L15.870,8.000 L15.870,5.180 C15.870,4.535 15.347,4.004 14.712,4.004 ZM13.862,6.689 C13.432,6.689 13.086,6.338 13.086,5.901 C13.086,5.465 13.432,5.114 13.862,5.114 C14.291,5.114 14.637,5.465 14.637,5.901 C14.637,6.338 14.291,6.689 13.862,6.689 ZM13.862,5.550 C13.675,5.550 13.516,5.712 13.516,5.901 C13.516,6.091 13.665,6.252 13.862,6.252 C14.058,6.252 14.207,6.091 14.207,5.901 C14.207,5.712 14.048,5.550 13.862,5.550 ZM13.862,6.120 C13.743,6.120 13.647,6.022 13.647,5.901 C13.647,5.781 13.743,5.683 13.862,5.683 C13.980,5.683 14.076,5.781 14.076,5.901 C14.076,6.022 13.980,6.120 13.862,6.120 Z" class="cls-1"/>
</svg>
