<?xml version="1.0" encoding="UTF-8" standalone="no"?>
<svg width="20px" height="21px" viewBox="0 0 20 21" version="1.1" xmlns="http://www.w3.org/2000/svg" xmlns:xlink="http://www.w3.org/1999/xlink" xmlns:sketch="http://www.bohemiancoding.com/sketch/ns">
    <!-- Generator: Sketch 3.3.3 (12072) - http://www.bohemiancoding.com/sketch -->
    <title>prize-3</title>
    <desc>Created with Sketch.</desc>
    <defs></defs>
    <g id="Page-1" stroke="none" stroke-width="1" fill="none" fill-rule="evenodd" sketch:type="MSPage">
        <path d="M18.8850121,6.411 C18.3560121,7.426 17.6450121,8.32 16.7740121,9.067 C16.6250121,9.194 16.4770121,9.313 16.3300121,9.424 C16.2560121,9.969 16.1140121,10.501 15.9030121,11.013 C15.5920121,11.767 15.1470121,12.444 14.5800121,13.024 C14.0140121,13.605 13.3530121,14.061 12.6180121,14.38 C12.0220121,14.638 11.3970121,14.796 10.7550121,14.854 L10.7550121,16.337 C11.4080121,16.443 12.0190121,16.687 12.5210121,17.051 C13.3540121,17.654 13.8310121,18.541 13.8310121,19.485 L13.8310121,21 L12.3530121,21 L7.6790121,21 L6.2010121,21 L6.2010121,19.485 C6.2010121,18.541 6.6780121,17.654 7.5110121,17.051 C8.0130121,16.687 8.6240121,16.443 9.2770121,16.337 L9.2770121,14.854 C8.6350121,14.796 8.0100121,14.638 7.4140121,14.38 C6.6790121,14.061 6.0180121,13.605 5.4520121,13.024 C4.8850121,12.444 4.4400121,11.767 4.1290121,11.013 C3.9180121,10.501 3.7760121,9.969 3.7020121,9.424 C3.5550121,9.313 3.4070121,9.194 3.2580121,9.067 C2.3870121,8.32 1.6760121,7.426 1.1470121,6.411 C0.495012097,5.16 0.124012097,3.733 0.0450120966,2.168 C0.0160120966,1.607 0.216012097,1.051 0.594012097,0.643 C0.973012097,0.234 1.5050121,0 2.0550121,0 L3.6430121,0 L5.1210121,0 L7.4510121,0 L8.7240121,0 L11.3080121,0 L12.5810121,0 L14.9110121,0 L16.3890121,0 L17.9770121,0 C18.5270121,0 19.0590121,0.234 19.4380121,0.643 C19.8160121,1.051 20.0160121,1.607 19.9870121,2.168 C19.9080121,3.733 19.5370121,5.16 18.8850121,6.411 L18.8850121,6.411 Z M3.6430121,1.515 L2.0550121,1.515 C1.7500121,1.515 1.5050121,1.777 1.5200121,2.089 C1.6470121,4.586 2.5950121,6.265 3.6430121,7.369 L3.6430121,1.515 L3.6430121,1.515 Z M7.6790121,19.485 L12.3530121,19.485 C12.3530121,18.612 11.4410121,17.894 10.2680121,17.803 L9.7640121,17.803 C8.5910121,17.894 7.6790121,18.612 7.6790121,19.485 L7.6790121,19.485 Z M14.9110121,1.515 L12.5810121,1.515 L11.0860121,1.515 L8.9460121,1.515 L7.4510121,1.515 L5.1210121,1.515 L5.1210121,8.549 C5.1210121,8.559 5.1220121,8.569 5.1220121,8.578 C5.1260121,9.259 5.2670121,9.906 5.5200121,10.491 C6.2480121,12.182 7.8980121,13.363 9.8180121,13.363 L10.2140121,13.363 C12.1340121,13.363 13.7840121,12.182 14.5120121,10.491 C14.7650121,9.906 14.9060121,9.259 14.9100121,8.578 C14.9100121,8.569 14.9110121,8.559 14.9110121,8.549 L14.9110121,1.515 L14.9110121,1.515 Z M17.9770121,1.515 L16.3890121,1.515 L16.3890121,7.369 C17.4370121,6.265 18.3850121,4.586 18.5120121,2.089 C18.5270121,1.777 18.2820121,1.515 17.9770121,1.515 L17.9770121,1.515 Z M9.5680121,10.5 C8.8760121,10.5 8.0590121,10.38 7.4230121,10.13 L7.8090121,9.18 C8.3420121,9.39 8.9660121,9.49 9.4770121,9.49 C10.5890121,9.49 11.1680121,9.14 11.1680121,8.47 C11.1680121,8.05 10.9070121,7.76 10.3850121,7.64 C10.1460121,7.58 9.8400121,7.56 9.4660121,7.56 L8.4790121,7.56 L8.4790121,6.6 L9.2730121,6.6 C10.3960121,6.6 10.9410121,6.26 10.9410121,5.64 C10.9410121,5.11 10.5660121,4.76 9.7950121,4.76 C9.1820121,4.76 8.5240121,4.96 7.9910121,5.21 L7.6280121,4.28 C8.1950121,4.02 9.0460121,3.75 9.9650121,3.75 C11.6330121,3.75 12.3820121,4.59 12.3820121,5.52 C12.3820121,6.19 11.9850121,6.67 11.2360121,6.95 L11.2360121,6.97 C12.0980121,7.12 12.6090121,7.68 12.6090121,8.45 C12.6090121,9.6 11.6560121,10.5 9.5680121,10.5 L9.5680121,10.5 Z" id="prize-3" fill="#FF6000" sketch:type="MSShapeGroup"></path>
    </g>
</svg>