<?xml version="1.0" encoding="UTF-8" standalone="no"?>
<svg width="22px" height="24px" viewBox="0 0 22 24" version="1.1" xmlns="http://www.w3.org/2000/svg" xmlns:xlink="http://www.w3.org/1999/xlink" xmlns:sketch="http://www.bohemiancoding.com/sketch/ns">
    <!-- Generator: Sketch 3.3.3 (12072) - http://www.bohemiancoding.com/sketch -->
    <title>prize-2</title>
    <desc>Created with Sketch.</desc>
    <defs></defs>
    <g id="Page-1" stroke="none" stroke-width="1" fill="none" fill-rule="evenodd" sketch:type="MSPage">
        <path d="M20.773895,7.78656203 C20.191895,8.89856203 19.409895,9.87656203 18.451895,10.694562 C18.287895,10.834562 18.124895,10.964562 17.962895,11.085562 C17.881895,11.683562 17.725895,12.266562 17.492895,12.826562 C17.150895,13.651562 16.661895,14.393562 16.038895,15.029562 C15.414895,15.665562 14.688895,16.164562 13.879895,16.513562 C13.223895,16.796562 12.536895,16.970562 11.830895,17.032562 L11.830895,18.657562 C12.549895,18.773562 13.220895,19.041562 13.773895,19.439562 C14.689895,20.099562 15.214895,21.071562 15.214895,22.105562 L15.214895,23.764562 L13.588895,23.764562 L8.44689495,23.764562 L6.82089495,23.764562 L6.82089495,22.105562 C6.82089495,21.071562 7.34589495,20.099562 8.26189495,19.439562 C8.81489495,19.041562 9.48589495,18.773562 10.204895,18.657562 L10.204895,17.032562 C9.49889495,16.970562 8.81089495,16.796562 8.15589495,16.513562 C7.34689495,16.164562 6.62089495,15.665562 5.99689495,15.029562 C5.37389495,14.393562 4.88489495,13.651562 4.54289495,12.826562 C4.30989495,12.266562 4.15389495,11.683562 4.07289495,11.085562 C3.91089495,10.964562 3.74789495,10.834562 3.58389495,10.694562 C2.62589495,9.87656203 1.84389495,8.89856203 1.26189495,7.78656203 C0.54489495,6.41656203 0.13689495,4.85256203 0.0488949501,3.13956203 C0.0178949501,2.52456203 0.23789495,1.91556203 0.65389495,1.46956203 C1.06989495,1.02156203 1.65589495,0.764562031 2.26089495,0.764562031 L4.00789495,0.764562031 L5.63389495,0.764562031 L8.19689495,0.764562031 L9.59589495,0.764562031 L12.439895,0.764562031 L13.838895,0.764562031 L16.401895,0.764562031 L18.027895,0.764562031 L19.774895,0.764562031 C20.379895,0.764562031 20.965895,1.02156203 21.381895,1.46956203 C21.797895,1.91556203 22.017895,2.52456203 21.986895,3.13956203 C21.898895,4.85256203 21.490895,6.41656203 20.773895,7.78656203 L20.773895,7.78656203 Z M4.00789495,2.42356203 L2.26089495,2.42356203 C1.92489495,2.42356203 1.65489495,2.71056203 1.67289495,3.05256203 C1.81189495,5.78756203 2.85489495,7.62556203 4.00789495,8.83556203 L4.00789495,2.42356203 L4.00789495,2.42356203 Z M8.44689495,22.105562 L13.588895,22.105562 C13.588895,21.149562 12.584895,20.362562 11.295895,20.262562 L10.739895,20.262562 C9.45089495,20.362562 8.44689495,21.149562 8.44689495,22.105562 L8.44689495,22.105562 Z M16.401895,2.42356203 L13.838895,2.42356203 L12.194895,2.42356203 L9.84089495,2.42356203 L8.19689495,2.42356203 L5.63389495,2.42356203 L5.63389495,10.127562 L5.63389495,10.159562 C5.63889495,10.905562 5.79389495,11.613562 6.07189495,12.255562 C6.87289495,14.107562 8.68889495,15.400562 10.799895,15.400562 L11.235895,15.400562 C13.346895,15.400562 15.162895,14.107562 15.963895,12.255562 C16.240895,11.613562 16.396895,10.905562 16.401895,10.159562 L16.401895,10.127562 L16.401895,2.42356203 L16.401895,2.42356203 Z M19.774895,2.42356203 L18.027895,2.42356203 L18.027895,8.83556203 C19.180895,7.62556203 20.223895,5.78756203 20.362895,3.05256203 C20.380895,2.71056203 20.110895,2.42356203 19.774895,2.42356203 L19.774895,2.42356203 Z M12.216895,6.92856203 C12.216895,6.25056203 11.607895,5.99456203 10.949895,5.99456203 C10.116895,5.99456203 9.43389495,6.23856203 8.83689495,6.49456203 L8.43989495,5.46056203 C9.11089495,5.17156203 10.054895,4.87156203 11.172895,4.87156203 C12.937895,4.87156203 13.794895,5.68356203 13.794895,6.79456203 C13.794895,8.87356203 10.613895,9.27356203 10.104895,11.130562 L13.869895,11.130562 L13.869895,12.264562 L8.16589495,12.264562 C8.50189495,8.58456203 12.216895,8.47356203 12.216895,6.92856203 L12.216895,6.92856203 Z" id="prize-2" fill="#8DACB4" sketch:type="MSShapeGroup"></path>
    </g>
</svg>