<?xml version="1.0" encoding="UTF-8" standalone="no"?>
<svg width="28px" height="29px" viewBox="0 0 28 29" version="1.1" xmlns="http://www.w3.org/2000/svg" xmlns:xlink="http://www.w3.org/1999/xlink" xmlns:sketch="http://www.bohemiancoding.com/sketch/ns">
    <!-- Generator: Sketch 3.3.3 (12072) - http://www.bohemiancoding.com/sketch -->
    <title>prize-1</title>
    <desc>Created with Sketch.</desc>
    <defs></defs>
    <g id="Page-1" stroke="none" stroke-width="1" fill="none" fill-rule="evenodd" sketch:type="MSPage">
        <path d="M25.990895,9.07812406 C25.276895,10.4311241 24.317895,11.6221241 23.140895,12.6181241 C22.939895,12.7881241 22.739895,12.9461241 22.541895,13.0941241 C22.441895,13.8221241 22.249895,14.5311241 21.964895,15.2131241 C21.544895,16.2181241 20.943895,17.1211241 20.179895,17.8941241 C19.414895,18.6691241 18.523895,19.2771241 17.530895,19.7021241 C16.725895,20.0471241 15.882895,20.2581241 15.015895,20.3341241 L15.015895,22.3121241 C15.897895,22.4531241 16.720895,22.7791241 17.399895,23.2641241 C18.523895,24.0681241 19.168895,25.2511241 19.168895,26.5091241 L19.168895,28.5291241 L17.173895,28.5291241 L10.862895,28.5291241 L8.86689495,28.5291241 L8.86689495,26.5091241 C8.86689495,25.2511241 9.51189495,24.0681241 10.635895,23.2641241 C11.314895,22.7791241 12.137895,22.4531241 13.019895,22.3121241 L13.019895,20.3341241 C12.152895,20.2581241 11.309895,20.0471241 10.504895,19.7021241 C9.51289495,19.2771241 8.62089495,18.6691241 7.85589495,17.8941241 C7.09189495,17.1211241 6.49089495,16.2181241 6.07089495,15.2131241 C5.78589495,14.5311241 5.59389495,13.8221241 5.49389495,13.0941241 C5.29589495,12.9461241 5.09589495,12.7881241 4.89489495,12.6181241 C3.71789495,11.6221241 2.75889495,10.4311241 2.04489495,9.07812406 C1.16489495,7.41012406 0.66389495,5.50612406 0.55689495,3.42012406 C0.51789495,2.67212406 0.78789495,1.93112406 1.29789495,1.38712406 C1.80989495,0.842124062 2.52789495,0.529124062 3.27089495,0.529124062 L5.41489495,0.529124062 L7.40989495,0.529124062 L10.555895,0.529124062 L12.272895,0.529124062 L15.762895,0.529124062 L17.479895,0.529124062 L20.625895,0.529124062 L22.620895,0.529124062 L24.764895,0.529124062 C25.507895,0.529124062 26.225895,0.842124062 26.737895,1.38712406 C27.247895,1.93112406 27.517895,2.67212406 27.478895,3.42012406 C27.371895,5.50612406 26.870895,7.41012406 25.990895,9.07812406 L25.990895,9.07812406 Z M5.41489495,2.54912406 L3.27089495,2.54912406 C2.85789495,2.54912406 2.52789495,2.89812406 2.54889495,3.31512406 C2.71989495,6.64412406 3.99989495,8.88212406 5.41489495,10.3551241 L5.41489495,2.54912406 L5.41489495,2.54912406 Z M10.862895,26.5091241 L17.173895,26.5091241 C17.173895,25.3451241 15.940895,24.3881241 14.358895,24.2661241 L13.676895,24.2661241 C12.094895,24.3881241 10.862895,25.3451241 10.862895,26.5091241 L10.862895,26.5091241 Z M20.625895,2.54912406 L17.479895,2.54912406 L15.462895,2.54912406 L12.572895,2.54912406 L10.555895,2.54912406 L7.40989495,2.54912406 L7.40989495,11.9281241 C7.40989495,11.9411241 7.41089495,11.9541241 7.41089495,11.9661241 C7.41589495,12.8741241 7.60689495,13.7371241 7.94789495,14.5181241 C8.93189495,16.7731241 11.158895,18.3461241 13.750895,18.3461241 L14.285895,18.3461241 C16.876895,18.3461241 19.104895,16.7731241 20.087895,14.5181241 C20.428895,13.7371241 20.619895,12.8741241 20.624895,11.9661241 C20.624895,11.9541241 20.625895,11.9411241 20.625895,11.9281241 L20.625895,2.54912406 L20.625895,2.54912406 Z M24.764895,2.54912406 L22.620895,2.54912406 L22.620895,10.3551241 C24.035895,8.88212406 25.315895,6.64412406 25.486895,3.31512406 C25.507895,2.89812406 25.177895,2.54912406 24.764895,2.54912406 L24.764895,2.54912406 Z M13.840895,7.43312406 L11.851895,8.33012406 L11.331895,7.12112406 L14.191895,5.82112406 L15.374895,5.82112406 L15.374895,14.4531241 L13.840895,14.4531241 L13.840895,7.43312406 L13.840895,7.43312406 Z" id="prize-1" fill="#FFA400" sketch:type="MSShapeGroup"></path>
    </g>
</svg>