<?xml version="1.0" encoding="UTF-8" standalone="no"?>
<svg width="16px" height="18px" viewBox="0 0 16 18" version="1.1" xmlns="http://www.w3.org/2000/svg" xmlns:xlink="http://www.w3.org/1999/xlink" xmlns:sketch="http://www.bohemiancoding.com/sketch/ns">
    <!-- Generator: Sketch 3.3.3 (12072) - http://www.bohemiancoding.com/sketch -->
    <title>stopwatch</title>
    <desc>Created with Sketch.</desc>
    <defs></defs>
    <g id="Page-1" stroke="none" stroke-width="1" fill="none" fill-rule="evenodd" sketch:type="MSPage">
        <path d="M14.993,4.538 L14.777,4.327 L14.049,5.04 C15.261,6.414 16,8.201 16,10.16 C16,14.489 12.42,18 7.999,18 C3.582,18 0,14.489 0,10.16 C0,8.207 0.733,6.427 1.937,5.055 L2.382,4.584 C3.656,3.351 5.351,2.535 7.237,2.359 L7.269,2.359 L7.269,1.708 L6.695,1.708 C6.214,1.708 5.823,1.326 5.823,0.854 C5.823,0.383 6.214,0 6.695,0 L9.309,0 C9.788,0 10.179,0.383 10.179,0.854 C10.179,1.325 9.79,1.708 9.309,1.708 L8.79,1.708 L8.79,2.362 C10.573,2.534 12.183,3.278 13.429,4.406 L14.144,3.705 L13.904,3.472 C13.702,3.275 13.702,2.957 13.904,2.759 C14.103,2.562 14.429,2.562 14.629,2.759 L15.718,3.826 C15.92,4.023 15.92,4.342 15.718,4.538 C15.519,4.735 15.194,4.735 14.993,4.538 L14.993,4.538 Z M7.991,3.634 C4.32,3.634 1.344,6.55 1.344,10.147 C1.344,13.744 4.319,16.659 7.991,16.659 C11.659,16.659 14.636,13.744 14.636,10.147 C14.636,6.55 11.659,3.634 7.991,3.634 L7.991,3.634 Z M7.999,11.424 C7.436,11.424 6.978,10.976 6.978,10.423 C6.978,10.056 7.182,9.737 7.483,9.563 L7.483,5.459 L8.033,4.7 L8.517,5.459 L8.517,9.563 C8.818,9.737 9.021,10.056 9.021,10.423 C9.021,10.976 8.562,11.424 7.999,11.424 L7.999,11.424 Z" id="stopwatch" fill="#FFA400" sketch:type="MSShapeGroup"></path>
    </g>
</svg>