<svg xmlns="http://www.w3.org/2000/svg" xmlns:xlink="http://www.w3.org/1999/xlink" preserveAspectRatio="xMidYMid" width="62" height="49" viewBox="0 0 62 49">
  <defs>
    <style>
      .cls-1, .cls-3 {
        fill: #1d1d1d;
      }

      .cls-1 {
        opacity: 0.8;
      }

      .cls-1, .cls-2, .cls-3 {
        fill-rule: evenodd;
      }

      .cls-2 {
        fill: #ffba00;
      }
    </style>
  </defs>
  <g>
    <path d="M60.000,0.000 L2.000,0.000 C1.468,0.000 -0.033,0.541 0.000,2.000 L0.000,40.000 C-0.022,41.692 1.468,42.000 2.000,42.000 L25.000,42.000 L25.000,47.000 L20.503,47.047 C19.971,47.047 19.539,47.484 19.539,48.024 C19.539,48.563 19.971,49.000 20.503,49.000 L24.177,49.000 L37.823,49.000 L37.826,49.000 L41.497,49.000 C42.029,49.000 42.461,48.563 42.461,48.024 C42.461,47.484 42.029,47.047 41.497,47.047 L37.000,47.000 L37.000,42.000 L60.000,42.000 C61.801,42.000 62.000,40.788 62.000,40.000 L62.000,2.000 C62.000,1.461 61.722,0.087 60.000,0.000 ZM35.000,47.000 L27.000,47.000 L27.000,42.000 L35.000,42.000 L35.000,47.000 ZM60.072,40.069 L35.895,40.069 L26.105,40.069 L1.928,40.069 L1.928,1.953 L60.072,1.953 L60.072,40.069 Z" class="cls-1"/>
    <path d="M47.500,26.000 L46.500,26.000 L39.500,26.000 L38.500,26.000 C38.224,26.000 38.000,25.776 38.000,25.500 L38.000,24.500 L38.000,16.500 C38.000,16.224 38.224,16.000 38.500,16.000 L39.500,16.000 L46.500,16.000 L47.500,16.000 C47.776,16.000 48.000,16.224 48.000,16.500 L48.000,17.500 L48.000,25.500 C48.000,25.776 47.776,26.000 47.500,26.000 ZM40.000,18.000 L40.000,24.000 L46.000,24.000 L46.000,18.000 L40.000,18.000 ZM35.500,26.000 L34.500,26.000 L27.500,26.000 L26.500,26.000 C26.224,26.000 26.000,25.776 26.000,25.500 L26.000,24.500 L26.000,16.500 C26.000,16.224 26.224,16.000 26.500,16.000 L27.500,16.000 L34.500,16.000 L35.500,16.000 C35.776,16.000 36.000,16.224 36.000,16.500 L36.000,17.500 L36.000,25.500 C36.000,25.776 35.776,26.000 35.500,26.000 ZM34.000,18.000 L28.000,18.000 L28.000,24.000 L34.000,24.000 L34.000,18.000 ZM23.500,26.000 L22.500,26.000 L15.500,26.000 L14.500,26.000 C14.224,26.000 14.000,25.776 14.000,25.500 L14.000,24.500 L14.000,16.500 C14.000,16.224 14.224,16.000 14.500,16.000 L15.500,16.000 L22.500,16.000 L23.500,16.000 C23.776,16.000 24.000,16.224 24.000,16.500 L24.000,17.500 L24.000,25.500 C24.000,25.776 23.776,26.000 23.500,26.000 ZM22.000,18.000 L16.000,18.000 L16.000,24.000 L22.000,24.000 L22.000,18.000 Z" class="cls-2"/>
    <path d="M53.811,11.576 L42.658,22.809 C42.469,23.000 42.163,23.000 41.974,22.809 L36.189,16.961 C36.000,16.770 36.000,16.460 36.189,16.269 L36.872,15.576 C37.061,15.385 37.367,15.385 37.556,15.576 L42.318,20.389 L52.444,10.191 C52.633,10.000 52.939,10.000 53.128,10.191 L53.811,10.884 C54.000,11.075 54.000,11.385 53.811,11.576 Z" class="cls-3"/>
  </g>
</svg>
