<svg xmlns="http://www.w3.org/2000/svg" xmlns:xlink="http://www.w3.org/1999/xlink" preserveAspectRatio="xMidYMid" width="66.062" height="63" viewBox="0 0 66.062 63">
  <defs>
    <style>
      .cls-1 {
        fill: #1d1d1d;
        opacity: 0.8;
      }

      .cls-1, .cls-2 {
        fill-rule: evenodd;
      }

      .cls-2 {
        fill: #ffba00;
      }
    </style>
  </defs>
  <g>
    <path d="M50.062,50.000 C49.953,50.351 49.630,50.687 49.412,51.002 C49.412,51.000 49.414,51.000 49.414,51.000 C49.833,51.602 50.062,52.273 50.062,53.000 C50.062,53.726 49.832,54.400 49.412,55.001 C48.078,56.423 44.618,57.934 41.062,58.000 C38.262,58.052 35.408,57.146 33.586,55.769 C33.527,55.847 33.464,55.927 33.412,56.002 C33.412,56.000 33.414,56.000 33.414,56.000 C33.833,56.601 34.062,57.274 34.062,58.000 C34.062,58.726 33.832,59.400 33.412,60.002 C32.078,61.423 28.618,62.934 25.062,63.000 C21.765,63.061 18.379,61.802 16.711,60.000 C16.291,59.398 16.062,58.726 16.062,58.000 C16.062,57.626 16.127,57.268 16.243,56.926 C14.551,58.011 11.843,58.948 9.062,59.000 C5.765,59.061 2.379,57.802 0.711,56.000 C0.291,55.399 0.062,54.727 0.062,54.000 C0.062,53.274 0.291,52.601 0.711,52.000 C0.492,51.686 0.332,51.350 0.222,51.000 C0.222,51.000 -0.243,50.149 0.222,49.000 C0.293,48.855 0.440,48.486 0.737,48.039 C0.300,47.428 0.062,46.743 0.062,46.000 C0.062,45.274 0.291,44.601 0.711,44.000 C0.291,43.399 0.062,42.727 0.062,42.000 C0.062,41.273 0.291,40.601 0.711,40.000 C0.492,39.686 0.332,39.350 0.222,39.000 C0.222,39.000 0.062,38.475 0.062,38.000 C0.062,37.477 0.222,37.000 0.222,37.000 C0.309,36.719 1.519,32.928 9.062,33.000 C19.337,33.098 18.107,38.509 17.902,39.000 C17.696,39.491 17.630,39.687 17.412,40.002 C17.412,40.000 17.414,40.000 17.414,40.000 C17.833,40.601 18.062,41.273 18.062,42.000 C18.062,42.271 17.999,42.527 17.937,42.782 C19.175,41.856 21.314,41.000 25.062,41.000 C32.376,41.000 33.864,43.907 34.096,45.674 C35.355,44.790 37.462,44.000 41.062,44.000 C51.564,44.000 50.062,50.000 50.062,50.000 ZM9.062,57.000 C12.791,57.000 15.808,55.747 16.021,54.173 C16.016,54.074 16.017,53.967 16.025,53.855 C16.004,53.689 15.978,53.524 15.898,53.365 C14.300,54.383 11.929,55.000 9.062,55.000 C6.195,55.000 3.825,54.383 2.226,53.365 C2.123,53.570 2.062,53.781 2.062,54.000 C2.062,55.656 5.196,57.000 9.062,57.000 ZM2.062,50.000 C2.062,51.656 5.196,53.000 9.062,53.000 C12.929,53.000 16.062,51.656 16.062,50.000 C16.062,50.000 16.062,50.000 16.062,50.000 C16.062,50.000 16.062,50.000 16.062,50.000 C16.062,49.779 15.994,49.565 15.888,49.358 C14.293,50.379 11.930,51.000 9.062,51.000 C6.197,51.000 3.827,50.385 2.229,49.367 C2.126,49.572 2.062,49.782 2.062,50.000 ZM9.062,49.000 C12.791,49.000 15.808,47.747 16.021,46.173 C16.016,46.074 16.017,45.967 16.025,45.855 C16.004,45.689 15.978,45.523 15.898,45.365 C14.300,46.383 11.929,47.000 9.062,47.000 C6.195,47.000 3.825,46.383 2.226,45.365 C2.123,45.570 2.062,45.781 2.062,46.000 C2.062,47.656 5.196,49.000 9.062,49.000 ZM9.062,35.000 C5.196,35.000 2.062,36.344 2.062,38.000 C2.062,39.656 5.196,41.000 9.062,41.000 C12.929,41.000 16.062,39.656 16.062,38.000 C16.062,36.344 12.929,35.000 9.062,35.000 ZM15.898,41.365 C14.300,42.383 11.929,43.000 9.062,43.000 C6.195,43.000 3.825,42.383 2.226,41.365 C2.123,41.570 2.062,41.781 2.062,42.000 C2.062,43.656 5.196,45.000 9.062,45.000 C12.929,45.000 16.062,43.656 16.062,42.000 C16.062,41.781 16.001,41.570 15.898,41.365 ZM25.062,43.000 C21.196,43.000 18.062,44.344 18.062,46.000 C18.062,47.656 21.196,49.000 25.062,49.000 C28.929,49.000 32.062,47.656 32.062,46.000 C32.062,44.344 28.929,43.000 25.062,43.000 ZM31.898,49.365 C30.300,50.383 27.929,51.000 25.062,51.000 C22.195,51.000 19.825,50.383 18.226,49.365 C18.151,49.514 18.131,49.669 18.107,49.825 C18.123,49.996 18.133,50.152 18.131,50.293 C18.480,51.810 21.430,53.000 25.062,53.000 C28.929,53.000 32.062,51.656 32.062,50.000 C32.062,49.781 32.001,49.570 31.898,49.365 ZM31.801,53.193 C30.098,54.160 27.611,54.953 25.062,55.000 C22.601,55.046 20.092,54.355 18.283,53.252 C18.140,53.491 18.062,53.742 18.062,54.000 C18.062,55.656 21.196,57.000 25.062,57.000 C28.929,57.000 32.062,55.656 32.062,54.000 C32.062,53.720 31.968,53.450 31.801,53.193 ZM31.898,57.365 C30.300,58.383 27.929,59.000 25.062,59.000 C22.195,59.000 19.825,58.383 18.226,57.365 C18.123,57.570 18.062,57.781 18.062,58.000 C18.062,59.656 21.196,61.000 25.062,61.000 C28.929,61.000 32.062,59.656 32.062,58.000 C32.062,57.781 32.001,57.570 31.898,57.365 ZM41.062,46.000 C37.196,46.000 34.062,47.344 34.062,49.000 C34.062,50.656 37.196,52.000 41.062,52.000 C44.929,52.000 48.062,50.656 48.062,49.000 C48.062,47.344 44.929,46.000 41.062,46.000 ZM47.898,52.365 C46.300,53.383 43.929,54.000 41.062,54.000 C38.195,54.000 35.825,53.383 34.226,52.365 C34.123,52.570 34.062,52.781 34.062,53.000 C34.062,54.656 37.196,56.000 41.062,56.000 C44.929,56.000 48.062,54.656 48.062,53.000 C48.062,52.781 48.001,52.570 47.898,52.365 ZM49.412,55.002 C49.412,55.002 49.412,55.002 49.412,55.001 C49.412,55.001 49.413,55.000 49.414,55.000 C49.414,55.000 49.412,55.000 49.412,55.002 ZM33.412,60.002 C33.412,60.002 33.412,60.002 33.412,60.002 C33.412,60.001 33.413,60.001 33.414,60.000 C33.414,60.000 33.412,60.000 33.412,60.002 Z" class="cls-1"/>
    <path d="M64.062,36.000 L64.062,2.000 L6.062,2.000 L6.062,-0.000 L64.062,-0.000 L66.062,-0.000 L66.062,36.000 L64.062,36.000 ZM42.062,23.000 L42.062,21.000 L48.062,21.000 L48.062,23.000 L42.062,23.000 ZM31.225,19.007 C31.132,18.999 31.062,18.915 31.062,18.819 L31.062,18.187 C31.062,18.084 31.143,18.000 31.244,18.000 L33.244,18.000 L33.244,16.188 C33.244,16.085 33.325,16.000 33.426,16.000 L34.032,16.000 C34.131,16.000 34.213,16.084 34.213,16.188 L34.213,18.000 L35.183,18.000 L35.183,16.188 C35.183,16.085 35.265,16.000 35.365,16.000 L35.971,16.000 C36.071,16.000 36.153,16.084 36.153,16.188 L36.153,18.000 C36.282,18.000 36.394,18.000 36.486,18.000 C37.641,18.000 38.577,19.049 38.577,20.344 C38.577,20.882 38.415,21.377 38.143,21.773 C38.698,22.188 39.062,22.891 39.061,23.688 C39.061,24.965 38.125,26.000 36.970,26.000 C36.780,26.000 36.495,26.000 36.152,26.000 L36.152,27.813 C36.152,27.915 36.070,28.000 35.970,28.000 L35.364,28.000 C35.264,28.000 35.182,27.916 35.182,27.813 L35.182,26.000 L34.213,26.000 L34.213,27.813 C34.213,27.915 34.131,28.000 34.031,28.000 L33.425,28.000 C33.325,28.000 33.243,27.916 33.243,27.813 L33.243,26.000 L31.339,26.000 C31.226,26.000 31.142,25.895 31.162,25.781 L31.278,25.144 C31.293,25.061 31.361,25.001 31.442,24.994 C32.013,24.937 32.516,24.522 32.516,24.000 L32.516,20.000 C32.516,19.420 31.908,19.072 31.225,19.007 ZM34.213,24.562 C34.213,24.562 35.630,24.562 36.183,24.562 C36.735,24.562 37.183,24.101 37.183,23.531 C37.183,22.961 36.735,22.500 36.183,22.500 C35.630,22.500 34.213,22.500 34.213,22.500 L34.213,24.562 ZM34.213,21.562 C34.213,21.562 35.145,21.562 35.698,21.562 C36.250,21.562 36.698,21.101 36.698,20.531 C36.698,19.962 36.250,19.500 35.698,19.500 C35.145,19.500 34.213,19.500 34.213,19.500 L34.213,21.562 ZM22.062,23.000 L22.062,21.000 L28.062,21.000 L28.062,23.000 L22.062,23.000 ZM62.062,6.000 L62.062,39.000 L60.062,39.000 L18.062,39.000 L18.062,37.000 L60.062,37.000 L60.062,6.000 L5.062,6.000 L5.062,34.000 L3.062,34.000 L3.062,4.000 L5.062,4.000 L62.062,4.000 L62.062,6.000 Z" class="cls-2"/>
  </g>
</svg>
